# xmcd
#
# Track frame offsets:
#	150
#	6187
#	40114
#	79145
#	110545
#	143855
#	176753
#	213116
#	248945
#	284708
#
# Disc length: 4253 seconds
#
# Revision: 1
# Processed by: cddbd v1.5.2PL0 Copyright (c) Steve Scherf et al.
# Submitted via: audiograbber 1.83.01
#
DISCID=8d109b0a
DTITLE=E.V.P - Neuroplasticity
DYEAR=1900
DGENRE=pstrance
TTITLE0=Delusions Unravalled
TTITLE1=Alchimals
TTITLE2=Ancient Monuments (E.V.P and Onkel Dunkel)
TTITLE3=Baad Sheep (E.V.P and Southwind)
TTITLE4=Neuroplasticity
TTITLE5=Waldorf Salad
TTITLE6=R2-Unit
TTITLE7=Spectral Seagulls
TTITLE8=Living Together (like cats and dogs)
TTITLE9=Hello There
EXTD=
EXTT0=
EXTT1=
EXTT2=
EXTT3=
EXTT4=
EXTT5=
EXTT6=
EXTT7=
EXTT8=
EXTT9=
PLAYORDER=
